<svg width="20" height="20" fill="none" xmlns="http://www.w3.org/2000/svg"><path fill-rule="evenodd" clip-rule="evenodd" d="M14.55 18.16c.26.18.59.22.88.11.3-.1.5-.36.57-.66.7-3.24 2.36-11.42 2.99-14.36a.62.62 0 00-.21-.6.63.63 0 00-.63-.11L.43 9.15a.65.65 0 00-.43.63c0 .28.2.53.47.6 1.87.57 4.33 1.35 4.33 1.35s1.15 3.47 1.75 5.23c.08.23.25.4.48.46.23.06.47 0 .64-.16l2.45-2.32s2.83 2.08 4.43 3.22zm-8.71-6.87l1.33 4.38.3-2.77 8.06-7.28c.08-.07.1-.2.02-.3a.22.22 0 00-.3-.04l-9.41 6z" fill="#2DA6E0"/></svg>
